<svg class="jss55" viewBox="0 0 35 38" xmlns="http://www.w3.org/2000/svg">
    <title>Vaticle</title>
    <g fill="none" fill-rule="evenodd">
        <g transform="translate(.005)" fill="#02DAC9">
            <path d="M17.155 3.721c9.463 0 17.134 7.671 17.134 17.134 0 9.463-7.671 17.134-17.134 17.134C7.692 37.989.02 30.318.02 20.855.02 11.392 7.69 3.72 17.155 3.72zm6.682 8.83H10.234a8.344 8.344 0 0 0-8.3 8.386 8.436 8.436 0 0 0 8.43 8.393l13.473.01a8.393 8.393 0 0 0 8.398-8.391 8.398 8.398 0 0 0-8.398-8.398z"></path>
            <ellipse cx="11.833" cy="20.998" rx="3.697" ry="3.574"></ellipse>
            <ellipse cx="23.079" cy="20.998" rx="3.697" ry="3.574"></ellipse>
            <path d="M3.966.027A3.295 3.295 0 0 1 5.292 6.34l-.001 7.456H2.655v-7.45A3.296 3.296 0 0 1 3.965.027z"></path>
        </g>
    </g>
</svg>